<?xml version="1.0" encoding="UTF-8"?>
<svg id="Layer_2" data-name="Layer 2" xmlns="http://www.w3.org/2000/svg" viewBox="0 0 59.04 28.39">
  <defs>
    <style>
      .cls-1 {
        fill: #f26322;
      }

      .cls-1, .cls-2, .cls-3, .cls-4 {
        fill-rule: evenodd;
      }

      .cls-2 {
        fill: #135c7c;
      }

      .cls-3 {
        fill: #136c8a;
      }

      .cls-5 {
        fill: #2281ab;
      }

      .cls-4 {
        fill: #1d969e;
      }
    </style>
  </defs>
  <g id="Layer_1-2" data-name="Layer 1">
    <g>
      <path class="cls-4" d="M44.55,17.72c-1.86,1.03-3.72,1.27-5.52.93l.26-2.09c-.42-2.22-1.42-3.2-2.69-4.19-.85-.66-3.45-3.06-2.62-3.95.36-.39.77-.11,1.17.14,2.73,1.72,4.17,2.81,4.6,6.27.02-.03.03-.06.04-.08,0-.02.03-.06.03-.08.22-.63.1-1.05.7-2.24,1.09-2.18,3.61-3.67,4.84-3.93.38-.08.73.23.69.62-.08.7-.55,1.59-.8,2.04-1.16,2.03-2.31,2.26-3.44,3.51-.53.59-1,.9-1.38,2.04,4.61-.3,8-4.48,6.49-9.62-1.19-4.07-6.1-6.51-10.53-3.74-1.15.72-1.37,1.06-2.36,1.84-1.53,1.21-2.7,2.86-4.01,4.3-.32.35-.64.79-.95,1.16l-2.87,3.33c-2.21,2.25-4.29,4.26-7.74,4.71.06-.62-.31-1.36-.23-2.14l.24.02c2.58-.14,4.6-2.61,6.17-4.13l4.72-5.49c1.95-2.4,5.11-5.48,8.06-6.45,4.61-1.52,9.39.65,11.26,5.18,1.83,4.43.09,9.72-4.12,12.06Z"/>
      <path class="cls-2" d="M28.29,6.59l-1.35,1.53s-2.81-3.75-6.38-5.33c-.22-.1-.44-.19-.66-.27-5.49-1.88-10.7,3.8-8.7,9.37.56,1.57,1.26,2.39,2.2,3.17.9.74,2.24,1.53,3.81,1.54-.11-1.08-.27-1.66-.82-2.43-.68-.95-4.29-3.34-4.07-5.08.03-.22.23-.38.44-.37.64.03,1.39.51,1.79.76,2.09,1.24,3.34,2.86,3.54,5.38l.11,1.7c-.08.78.29,1.53.23,2.14-2.19.18-3.92-.32-5.5-1.28C6.52,13.45,7.56,2.85,14.8.47,16.99-.25,19.42,0,21.55.89c.53.22,1.04.49,1.53.79.43.29.95.67,1.55,1.17,0,0,0,0,0,0,.46.39.96.84,1.51,1.39,0,0,.01.01.02.02.65.65,1.36,1.42,2.13,2.33Z"/>
      <path class="cls-4" d="M39.62,4.75c-2.96.73-1.77,5.05,1.1,4.29,2.7-.71,1.79-5-1.1-4.29h0Z"/>
      <path class="cls-1" d="M17.22,4.75c-2.89.82-1.69,5.03,1.15,4.27.95-.25,1.94-1.36,1.56-2.7-.29-1-1.37-1.95-2.71-1.57h0Z"/>
      <path class="cls-1" d="M24.2,8.82c.04.78-.79,1.62-1.15,1.92-.35.3-.51.57-.9.89l-1.88,1.59c-.97.74-1.74,2.01-1.81,3.34l-.24-.02-.11-1.7c.29-.6.34-1.72.69-2.47.69-1.48,3.48-3.74,4.74-4.05.32-.08.64.16.66.49Z"/>
      <path class="cls-3" d="M39.29,16.55l-.26,2.09c-1.2-.23-2.38-.73-3.49-1.42-.13-.08-.26-.17-.39-.26-.08-.06-.16-.12-.24-.18-.62-.47-1.27-1.03-1.79-1.51-.02-.02-.03-.03-.05-.05-.06-.06-.12-.12-.18-.18-.01-.02-.03-.03-.05-.05-1.68-1.63-3.25-3.49-3.25-3.49h0s1.52-1.66,1.52-1.66c1.3,1.7,2.81,3.2,3.85,4.12.24.22.47.41.66.57.38.32.65.53.76.61.04.03.06.04.06.04.73.52,1.62,1.23,2.86,1.36Z"/>
    </g>
    <g>
      <path class="cls-5" d="M0,22.63h3.51v.74H.79v1.66h2.56v.74H.79v1.77h2.8v.78H0v-5.69Z"/>
      <path class="cls-5" d="M4.53,22.24h.76v6.07h-.76v-6.07Z"/>
      <path class="cls-5" d="M6.14,26.17c0-1.21.97-2.19,2.17-2.19s2.17.98,2.17,2.19c0,.1-.02.25-.02.36h-3.5c.12.65.72,1.14,1.46,1.14.53,0,.95-.22,1.22-.55l.62.38c-.4.54-1.11.88-1.84.88-1.3,0-2.27-.99-2.27-2.2ZM9.7,25.9c-.04-.66-.59-1.21-1.38-1.21s-1.32.55-1.37,1.21h2.75Z"/>
      <path class="cls-5" d="M10.88,24.03h.82l1.25,3.15,1.24-3.15h.82l-1.68,4.28h-.76l-1.68-4.28Z"/>
      <path class="cls-5" d="M15.4,26.17c0-1.21.93-2.2,2.09-2.2.7,0,1.33.42,1.6.97l.04-.9h.7v4.28h-.7l-.04-.9c-.26.54-.9.95-1.6.95-1.15,0-2.09-.99-2.09-2.2ZM17.61,27.61c.8,0,1.45-.65,1.45-1.44s-.65-1.46-1.45-1.46-1.44.65-1.44,1.46.65,1.44,1.44,1.44Z"/>
      <path class="cls-5" d="M21.13,26.72v-2h-.58v-.69h.6l.09-1.4h.64v1.4h1.03v.69h-1.03v1.99c0,.62.3.93.79.93.11,0,.23-.02.33-.05l.19.68c-.18.08-.4.12-.62.12-.79,0-1.44-.48-1.44-1.67Z"/>
      <path class="cls-5" d="M23.75,26.17c0-1.21.97-2.19,2.17-2.19s2.17.98,2.17,2.19c0,.1-.02.25-.02.36h-3.5c.12.65.72,1.14,1.46,1.14.53,0,.95-.22,1.22-.55l.62.38c-.41.54-1.11.88-1.84.88-1.3,0-2.27-.99-2.27-2.2ZM27.31,25.9c-.04-.66-.59-1.21-1.38-1.21s-1.32.55-1.37,1.21h2.75Z"/>
      <path class="cls-5" d="M28.69,26.17c0-1.21.93-2.2,2.09-2.2.69,0,1.32.4,1.57.94v-2.67h.76v6.07h-.7l-.04-.9c-.26.54-.9.95-1.6.95-1.15,0-2.09-.99-2.09-2.2ZM30.91,27.61c.8,0,1.45-.65,1.45-1.44s-.65-1.46-1.45-1.46-1.44.65-1.44,1.46.65,1.44,1.44,1.44Z"/>
      <path class="cls-5" d="M36.44,22.63h.84l2.16,3.66,2.15-3.66h.85v5.69h-.8v-4.35l-1.96,3.34h-.48l-1.95-3.34v4.35h-.8v-5.69Z"/>
      <path class="cls-5" d="M44.01,22.63c.26,0,.48.22.48.48s-.22.48-.48.48-.48-.22-.48-.48.22-.48.48-.48ZM43.63,24.03h.76v4.28h-.76v-4.28Z"/>
      <path class="cls-5" d="M45.49,24.03h.7l.04.76c.23-.45.69-.82,1.35-.82,1,0,1.75.69,1.75,2.16v2.18h-.76v-2.18c0-.97-.53-1.42-1.16-1.42s-1.16.44-1.16,1.42v2.18h-.76v-4.28Z"/>
      <path class="cls-5" d="M50.1,26.17c0-1.21.93-2.2,2.09-2.2.69,0,1.32.4,1.57.94v-2.67h.76v6.07h-.7l-.04-.9c-.26.54-.9.95-1.6.95-1.15,0-2.09-.99-2.09-2.2ZM52.31,27.61c.8,0,1.45-.65,1.45-1.44s-.65-1.46-1.45-1.46-1.44.65-1.44,1.46.65,1.44,1.44,1.44Z"/>
      <path class="cls-5" d="M55.42,27.65l.52-.5c.29.32.85.53,1.39.53s.95-.22.95-.59c0-.88-2.71-.34-2.71-1.93,0-.7.64-1.19,1.62-1.19.55,0,1.25.15,1.72.71l-.47.47c-.3-.36-.83-.49-1.23-.49-.51,0-.88.19-.88.51,0,.78,2.71.3,2.71,1.9,0,.92-.82,1.33-1.71,1.33-.62,0-1.41-.2-1.91-.75Z"/>
    </g>
  </g>
</svg>